<svg xmlns="http://www.w3.org/2000/svg" viewBox="0 0 606.15 162.76"><defs><style>.cls-1{fill:#fff;}</style></defs><title>Ресурс 1</title><g id="Шар_2" data-name="Шар 2"><g id="Layer_1" data-name="Layer 1"><g id="_Rectangle_Rectangle_Image" data-name="&lt;Rectangle&gt; + &lt;Rectangle&gt; Image"><path class="cls-1" d="M21.44,53.83a14.37,14.37,0,0,1,4.87,4.56q13.15,20.11,26.31,38l1,1.35a5.53,5.53,0,0,0,2.24,1.73q1.08.39,1.56-2.94a35.44,35.44,0,0,0,.2-4.31V89.37a58,58,0,0,0-.35-6.6,9.33,9.33,0,0,0-1.41-4.47c-.13-.18-1.3-1.22-3.51-3.19a5.39,5.39,0,0,1-2-3.93,1.89,1.89,0,0,1,.87-1.89,3,3,0,0,1,2.34.14q7.13,2.75,14.23,4.88a17.64,17.64,0,0,1,3.9,1.52,4,4,0,0,1,2.24,3.44c0,1.69-1.12,2.68-3.36,2.92s-3.37,1.3-3.37,3.26v54.64c0,2-1,2.73-2.92,2.11-1.27-.41-2.53-.83-3.8-1.26a5.35,5.35,0,0,1-2.73-1.65,5.78,5.78,0,0,1-.58-3A22.8,22.8,0,0,0,54,125.45c-.91-1.72-3.18-5.14-6.82-10.45q-7.11-10.36-14.23-21.39c-2.72-4.32-5-8-6.91-11-3.71-5.85-6-9.17-7-9.76s-1.56-.21-1.56,1.29V106A14.91,14.91,0,0,0,22.12,117c1.56,1.57,2.34,3,2.34,4.38,0,1.11-.41,1.69-1.22,1.74a5.43,5.43,0,0,1-3-1q-7.8-4.68-15.59-10.21a12.37,12.37,0,0,1-3-3,6,6,0,0,1-1.32-3.41c0-1.63,1-2.12,3.12-1.54s3.12-.66,3.12-3.65V56.22c0-2.48-1.5-5.32-4.49-8.67A7.15,7.15,0,0,1,0,43a1.39,1.39,0,0,1,1.17-1.58,3.52,3.52,0,0,1,2.63.84Q12.62,48.61,21.44,53.83Z"/><path class="cls-1" d="M101.33,103.18a34.58,34.58,0,0,1,19.39,9.13c5.85,5.27,8.77,11.26,8.77,18.29,0,7.26-2.82,12.88-8.47,16.55-4.94,3.23-11.21,4.58-18.81,3.68a30.64,30.64,0,0,1-18.9-9,27.33,27.33,0,0,1-7.8-19.67c0-7.28,2.45-12.4,7.36-15.65S93.93,102.27,101.33,103.18ZM89.06,117.47c0,5,1.52,10.53,4.58,16.48,3.5,6.87,7.56,10.58,12.18,11a7.32,7.32,0,0,0,6.62-2.26,10.34,10.34,0,0,0,2.34-7.06c0-5.13-1.59-10.67-4.77-16.7-3.64-6.92-7.83-10.67-12.57-11.34-2.86-.4-5,.43-6.53,2.57A12.61,12.61,0,0,0,89.06,117.47Z"/><path class="cls-1" d="M146.16,81.6a1.31,1.31,0,0,1,1.55,1,11.52,11.52,0,0,1,.3,3v21.83l.78.62a22.49,22.49,0,0,0,5-2.7,13.56,13.56,0,0,1,5.77-2.21c6.9-.84,12.54.93,16.9,5.55,4.1,4.34,6.16,10,6.16,17a25.75,25.75,0,0,1-5.61,16.2,21.34,21.34,0,0,1-14.46,8.44,19.36,19.36,0,0,1-8-.61,34,34,0,0,1-7.22-3.24q-2.62,1.76-5.26,3.47a13.12,13.12,0,0,1-5.75,2.21,1.59,1.59,0,0,1-1.75-1.07,8.77,8.77,0,0,1-.39-2.86V99.54A6.33,6.33,0,0,0,130.76,94q-1.56-1-1.56-2a2.5,2.5,0,0,1,.88-2A9.24,9.24,0,0,1,132,88.77C135,87,137.26,85.54,139,84.56,142.06,82.73,144.47,81.72,146.16,81.6Zm11.49,60.59c3.84-.44,6.95-3,9.36-7.66a25.81,25.81,0,0,0,3-12,14.74,14.74,0,0,0-2.83-9.12,8.6,8.6,0,0,0-8.38-3.55,11.39,11.39,0,0,0-9,5.79,20.69,20.69,0,0,0-2.44,10.53A27.36,27.36,0,0,0,149.27,137C151,140.88,153.76,142.64,157.65,142.19Z"/><path class="cls-1" d="M191.17,95.12c0-3.38-1.34-5.2-4-5.48-1.34-.11-2-.66-2-1.63a3.44,3.44,0,0,1,.69-2.1,9.67,9.67,0,0,1,2-1.87q7.19-5.57,14.36-11.4l.79-.49.49-.12c.46-.12.85.09,1.18.62a2.88,2.88,0,0,1,.49,1.49v56.2q.3,3.43,3.17,4.16c1.92.47,2.88,1.21,2.88,2.26a3,3,0,0,1-1.56,2.66,11.78,11.78,0,0,1-3.51,1.5q-8.62,2.22-17.25,4.08a4,4,0,0,1-2.53-.25,1.86,1.86,0,0,1-1.17-1.81c0-.91,1-2.18,3-3.85a7.85,7.85,0,0,0,3-6.31Z"/><path class="cls-1" d="M231.7,116.46c0,2.86,1.63,4.79,4.88,5.77a14.4,14.4,0,0,0,9-.19,23.65,23.65,0,0,0,8.19-5.1q4-4,8-8c1.24-.44,1.86,0,1.86,1.39a3.45,3.45,0,0,1-.35,1.44c-.22.5-.5,1-.82,1.61a39.34,39.34,0,0,1-10.33,11.18,46.4,46.4,0,0,1-13.45,7.08c-7.4,2.39-13.44,2.16-18.12-.58-5-2.91-7.5-8.06-7.5-15.33,0-6.7,2.61-13,7.84-19a40.12,40.12,0,0,1,18.07-12.27c4.75-1.53,9-1.65,12.62-.33a14.61,14.61,0,0,1,8.33,7.6,4.1,4.1,0,0,0,.35,1,2,2,0,0,1,.24.69c0,.78-2.47,3-7.41,6.66q-6.91,5-13.83,9.86C234.2,113.52,231.7,115.68,231.7,116.46Zm-1.94-5c1.42-.44,4.33-2.31,8.72-5.67s6.57-5.56,6.57-6.53a6.94,6.94,0,0,0-3.6-6A8.3,8.3,0,0,0,234.14,92a9.78,9.78,0,0,0-5.7,4.4,14,14,0,0,0-1.9,7.29,19.8,19.8,0,0,0,.83,5.21C227.92,110.9,228.72,111.73,229.76,111.41Z"/><path class="cls-1" d="M263.86,106.2A60.56,60.56,0,0,0,275,109a22.94,22.94,0,0,0,11.6-1.28,21.06,21.06,0,0,0,5.26-2.72c2.21-1.67,3.31-3.34,3.31-5,0-2.15-2.69-3.12-8.08-3-8.51.22-13.51.17-15-.07-5.45-1-8.18-3.84-8.18-8.58a16.11,16.11,0,0,1,4.87-11.28,27.14,27.14,0,0,1,10.62-6.86,34.09,34.09,0,0,1,6.14-1.38,33.37,33.37,0,0,0,6.23-1.43c.52-.19,1.6-1.23,3.22-3.11a6.12,6.12,0,0,1,2.34-1.87,1.88,1.88,0,0,1,2.24.63q1,1.11,4.14,5.28T306.83,73a2.15,2.15,0,0,1-1.37,2.27q-5.55-1.14-10.62-1.7a21.41,21.41,0,0,0-9.84.92,14.93,14.93,0,0,0-5.07,2.78,4.45,4.45,0,0,0-1.55,3.25c0,2.08,2.76,3,8.28,2.61,8.51-.54,13.67-.72,15.49-.49q8.28,1.22,8.28,8.81a19.38,19.38,0,0,1-5.55,13.37,32,32,0,0,1-12.57,8.28A52.82,52.82,0,0,1,285.1,115a55.81,55.81,0,0,0-7.21,1.87c-.65.23-1.45,1.13-2.39,2.67a6.15,6.15,0,0,1-2.68,2.77q-1.36.49-5.94-5.66t-4.58-7.83A2.44,2.44,0,0,1,263.86,106.2Z"/><path class="cls-1" d="M312,47a3,3,0,0,1,.54-1.61A8.52,8.52,0,0,1,314,43.74L320,38q3.45-3.32,6-5.91c.53-.52,1.12-1.12,1.78-1.82A4.94,4.94,0,0,1,329.41,29c.85-.31,1.43-.31,1.72,0a2.75,2.75,0,0,1,.45,1.84l-.3,17.36c0,1.5,0,3.15.05,5a12.56,12.56,0,0,0,.44,3.74c0,.07.05.08.15.05a1.16,1.16,0,0,1,.43-.06c.46-.36,2.28-2.29,5.46-5.77a16.58,16.58,0,0,1,6.72-4.33q4.59-1.6,7.6.09,3.51,1.92,6.34,9.87,1.26,3.57,2.73,8.85,2,7.34,2.63,9.24c.39,1.28,1.62,2.64,3.7,4.12s3.12,2.42,3.12,2.81a2.87,2.87,0,0,1-1.37,2.49,13.79,13.79,0,0,1-3.5,1.61l-1.17.38q-7.32,2.39-14.62,4.92l-1.75.61a3.59,3.59,0,0,1-2,.16,1.1,1.1,0,0,1-.93-1.19,4.86,4.86,0,0,1,1.37-3.22q3.21-3.75,3.21-6.29,0-2.83-2-10.48t-3.27-9.65a6.08,6.08,0,0,0-2.43-2.56,4.77,4.77,0,0,0-3.46.25,9.51,9.51,0,0,0-5.51,4.42,15.21,15.21,0,0,0-1.6,7.22V85.59c0,2.54,1.29,4.25,3.89,5.14a2.41,2.41,0,0,1,1.95,2.33,3.1,3.1,0,0,1-1.37,2.44,11.48,11.48,0,0,1-3.14,1.72q-8.75,3.16-17.47,6.4a3.22,3.22,0,0,1-2.38.06A1.67,1.67,0,0,1,312,102q0-1.08,2.92-4.3a11.6,11.6,0,0,0,2.93-8.1V51.47a2.88,2.88,0,0,0-3.14-2.55C312.89,48.88,312,48.24,312,47Z"/><path class="cls-1" d="M388,40.4a18.54,18.54,0,0,0-5.84,3l-6.14,5c-1.37.42-2.05.15-2.05-.82,0-3.35,2.4-6.82,7.21-10.31A36.4,36.4,0,0,1,393,31.42c5.2-1.43,9.26-1,12.18,1.21q3.51,2.65,6.24,10.21l5.75,15.87a9.39,9.39,0,0,0,1.94,3.39q1.76,2,3.42,1.65a10.92,10.92,0,0,0,2.92-1.16c.65.14,1,.87,1,2.18a6.38,6.38,0,0,1-3.12,5.34,16.4,16.4,0,0,1-6,2.52c-3.64.78-6.36.65-8.18-.44Q405.53,70,404.85,70l-.88.41a37.61,37.61,0,0,1-7.84,5.83,39.82,39.82,0,0,1-8.72,3.87c-4.94,1.41-8.94,1.46-12,.06-3.38-1.56-5.06-4.71-5.06-9.52,0-5.39,3.44-10.44,10.32-15A58.4,58.4,0,0,1,398,48.18c-1.56-3.65-2.63-5.77-3.22-6.39C393.25,40,391,39.55,388,40.4Zm6.34,30.79a13,13,0,0,0,5.45-2.91,7.26,7.26,0,0,0,2.73-5.47,8.93,8.93,0,0,0-.19-1.7c-.14-.62-.3-1.26-.49-1.93q-1.08-4-1.95-4.76c-1-.79-2.79-.84-5.46-.12a14.44,14.44,0,0,0-6.67,4.1,9.53,9.53,0,0,0-3,6.7,5.78,5.78,0,0,0,2.92,5.4A8.37,8.37,0,0,0,394.33,71.19Z"/><path class="cls-1" d="M430.08,39.91c-.06-.51-.13-1-.19-1.62a4.39,4.39,0,0,0-3-1.66c-1.53-.33-2.29-1-2.29-2a3.06,3.06,0,0,1,.58-1.67,7.54,7.54,0,0,1,1.25-1.5q3.48-3,7.33-5.87c3.92-2.92,6.33-4.39,7.23-4.52s1.72.1,2.08.74a5.41,5.41,0,0,1,.53,2.61v3.21c0,1.3.19,2.09.59,2.36a39,39,0,0,1,6.85-7.34,15.84,15.84,0,0,1,9-3.92,14.09,14.09,0,0,1,4.31.26,2.19,2.19,0,0,1,1.76,2.39,3.82,3.82,0,0,1-.35,1.24c-.22.56-.37.91-.43,1-.26.73-.7,2.09-1.32,4.07s-1.25,4.07-1.9,6.25a5.87,5.87,0,0,1-1.07,2.56,2.1,2.1,0,0,1-1.36.83c-.53,0-1.53-.8-3-2.49a6.18,6.18,0,0,0-5.55-2.2,7,7,0,0,0-5.6,3.82,14.74,14.74,0,0,0-1.9,7.31V55.65c.19.82.35,1.59.49,2.32s1.13,1.49,3,2.3S450,62.06,450,63.16a3.08,3.08,0,0,1-1.12,2.37,7,7,0,0,1-3.75,1.33q-8.86,1.13-17.73,2.77a4.55,4.55,0,0,1-2.59-.24,1.84,1.84,0,0,1-1.21-1.86,4.68,4.68,0,0,1,2-3.61c3-2.32,4.48-4.75,4.48-7.35Z"/><path class="cls-1" d="M472.37,34.16a4,4,0,0,0-2.58-4c-1.72-.76-2.58-1.41-2.58-2a2.5,2.5,0,0,1,.63-1.63,5.79,5.79,0,0,1,1.5-1.28,100.27,100.27,0,0,1,10.08-5.07,15.69,15.69,0,0,1,5.13-1.53l.39.11.39.41c.22,1.3.37,2.53.46,3.66s.12,2.59.12,4.34c0,2.34-.09,5.85-.29,10.52s-.29,8.17-.29,10.51c0,1.24,0,2.41.05,3.51a21.25,21.25,0,0,0,.53,3.87,5.91,5.91,0,0,0,3.17,3.73c1.79,1,2.68,2.08,2.68,3.12a2.1,2.1,0,0,1-1.27,2.12,6.33,6.33,0,0,1-2.92.49c-5.78-.24-11.56-.25-17.34-.06a4.08,4.08,0,0,1-2.39-.69,2.19,2.19,0,0,1-1.12-1.9c0-1,.94-2.13,2.82-3.24s2.83-3,2.83-5.73ZM479.84,0a6.61,6.61,0,0,1,3.71,1.23,3.6,3.6,0,0,1,1.78,3.07c0,2.27-1.38,4.2-4.14,5.85a14.63,14.63,0,0,1-7.32,2.25,4.59,4.59,0,0,1-3.32-1.23,4,4,0,0,1-1.39-3.12c0-1.88,1.28-3.72,3.84-5.47S477.85,0,479.84,0Z"/><path class="cls-1" d="M510.47,20.59a2.41,2.41,0,0,1,2,1.95,15.14,15.14,0,0,1,.49,4.17v1.38l.49.38.49,0q2.52-2,5.06-4a8.4,8.4,0,0,1,6.63-.94c3.83.89,7,3.29,9.45,7.1A37.19,37.19,0,0,1,539.7,42q2,8.63,4.09,17.29c.26,1.19.55,2.36.88,3.51s.7,2.41,1.12,3.79a12.93,12.93,0,0,0,3.12,4.71c1.65,1.77,2.48,3.1,2.48,3.94a1.48,1.48,0,0,1-1.56,1.66,8.46,8.46,0,0,1-3.31-.5q-8.38-2.92-16.76-5a7.62,7.62,0,0,1-2.58-1.22A2.57,2.57,0,0,1,526,68c0-1.29.89-2.23,2.68-2.77s2.68-1.49,2.68-2.92a34.91,34.91,0,0,0-.68-6.61c-.13-.81-1.13-4.65-3-11.46a56.51,56.51,0,0,0-2.52-7c-1.49-2.87-3.27-4.52-5.33-4.93a4.88,4.88,0,0,0-5.63,2.39,13.13,13.13,0,0,0-1.45,6.62V56.83A6,6,0,0,0,514,61.06q2.18,1.65,3.67,3c.26.6.52,1.21.79,1.81A2,2,0,0,1,516.8,68a7.81,7.81,0,0,1-3.12,0q-8.13-1.36-16.27-2.06a5.46,5.46,0,0,1-2.63-.85,2.56,2.56,0,0,1-1.07-2.29c0-.84.94-1.83,2.82-2.92s2.83-3.27,2.83-6.61V36.87c0-1.57-1-2.95-3-4.09s-3-2.09-3-2.88a3.71,3.71,0,0,1,1.46-2.83,14,14,0,0,1,2.92-1.73c.2,0,1.69-.77,4.49-2.1C506.54,21.23,509.3,20.42,510.47,20.59Z"/><path class="cls-1" d="M564.84,69.33c0,.21-.07.43-.1.64a3.1,3.1,0,0,0,1,2.11A11.78,11.78,0,0,0,568.05,74a269.29,269.29,0,0,1,26,18.48,39.48,39.48,0,0,1,8.28,8.8c2.53,3.77,3.8,7.3,3.8,10.48,0,5.16-3.54,5.93-10.62,3.12a153.2,153.2,0,0,1-16.95-8.47c-5.65-3.11-10.92-6.24-15.79-9.52-7.6-5.07-11.4-9-11.4-12.6,0-1.82.72-3,2.15-3.37s2.85-.78,4.28-1.09l.3-.46a37.81,37.81,0,0,0-3.81-3.6,7.47,7.47,0,0,1-2.92-5.8c0-1.43.91-2.65,2.73-3.63s3.67-1.93,5.55-2.88a74.43,74.43,0,0,1-3.89-6.78,16.45,16.45,0,0,1-1.95-7.31c0-4.67,1.72-7.73,5.16-9,2.79-1,6.72-.92,11.79.57.33.1,1.48.5,3.46,1.28l4.09,1.6a1.28,1.28,0,0,0,1.71-.51c.49-.8,1-1.6,1.46-2.39a8,8,0,0,1,4.68-2.82,9.86,9.86,0,0,1,6.91,1.9,20.6,20.6,0,0,1,5.36,4.86A11.2,11.2,0,0,1,601,51.46c0,1.17-.46,1.86-1.37,2.07a4.07,4.07,0,0,1-3.12-.87c-.64-.44-1.68-1.24-3.11-2.37s-2.5-1.9-3.22-2.35a7.24,7.24,0,0,0-2.78-1.14c-.81-.1-1.21.31-1.21,1.21l.48,1.08c.78,1,1.58,2,2.39,3s1.64,1.86,2.49,2.79a51.64,51.64,0,0,1,6.82,9.4,21.68,21.68,0,0,1,2.34,9.91c0,5.27-2.73,7.33-8.19,6.65-4.35-.54-9.48-2.53-15.39-5.72-1.3-.7-2.51-1.4-3.61-2.1-3.77-2.4-5.78-3.56-6-3.69a3.48,3.48,0,0,0-2-.43Zm1.95,16.8a3.78,3.78,0,0,0-2.83-.34,1.82,1.82,0,0,0-1.27,2c0,1.69,1.47,3.62,4.39,5.92a99.21,99.21,0,0,0,12.47,7.8,58.75,58.75,0,0,0,8.58,4.2c1.94.64,2.92.38,2.92-.85a4,4,0,0,0-.44-1.84,8.73,8.73,0,0,0-2.09-2.29c-3.38-2.8-7.1-5.62-11.16-8.37A81.24,81.24,0,0,0,566.79,86.13Zm10.42-16.25c2.41,1.3,4.22,1.66,5.46,1,1.56-.79,2.34-3.34,2.34-7.69a20.63,20.63,0,0,0-1.66-8.48,14.66,14.66,0,0,0-6.62-7.12c-2.47-1.33-4.28-1.29-5.41.06s-1.71,3.35-1.71,6a26.49,26.49,0,0,0,1.17,8.66A13.17,13.17,0,0,0,577.21,69.88Z"/></g><g id="_Group_" data-name="&lt;Group&gt;"><g id="_Rectangle_Image" data-name="&lt;Rectangle&gt; Image"><path class="cls-1" d="M466.5,139.3c-1.06,1.28-2.07,2.53-3.1,3.76-3.87,4.65-8,9.08-12.26,13.37a1.07,1.07,0,0,0-.28.68c0,1.53,0,3.06,0,4.6a.93.93,0,0,1-1.29,1,1,1,0,0,1-.59-1c0-1.54,0-3.07,0-4.6a1,1,0,0,0-.25-.64c-3.55-3.52-6.94-7.19-10.23-11L438,145l-.29.37c-1.17,1.61-2.33,3.23-3.51,4.84a1.58,1.58,0,0,1-.62.53.82.82,0,0,1-1-.32.93.93,0,0,1,0-1.16c.73-1,1.48-2.06,2.22-3.09.56-.78,1.11-1.56,1.69-2.33a.43.43,0,0,0,0-.63c-2.74-3.31-5.43-6.67-7.85-10.23a.37.37,0,0,0-.57-.15c-1,.49-2.1,1-3.15,1.45a1,1,0,0,1-1.39-.4c-.25-.52,0-1,.63-1.33l3.19-1.45-.31-.5a58.2,58.2,0,0,1-5.79-11c-.35-.92-.35-.91-1.32-.8s-1.91.18-2.86.27a.91.91,0,0,1-1-.76.87.87,0,0,1,.73-1.06c.82-.13,1.65-.18,2.48-.27l1.08-.12c-.15-.77-.31-1.51-.43-2.25a12.18,12.18,0,0,1,.86-7.39,11.4,11.4,0,0,1,3.35-4,22.7,22.7,0,0,1,2.61-1.67A.41.41,0,0,0,427,101c-.21-1.64-.4-3.28-.6-4.93,0,0,0-.09,0-.14-.07-.75.22-1.22.8-1.28s1,.33,1.06,1.08c.19,1.56.37,3.13.56,4.7a2.27,2.27,0,0,0,.07.28c4.4-.84,8.14.79,11.73,3.15.19-.58.36-1.12.53-1.66.27-.88.54-1.77.82-2.65s.69-1.06,1.28-.87.73.7.5,1.43c-.47,1.54-.94,3.07-1.4,4.61a.6.6,0,0,0,.11.5,48.84,48.84,0,0,1,7.34,7.53l0,.06c1.7-1.81,3.34-3.66,5.09-5.4a30,30,0,0,1,5.87-4.55l-1.48-2.82a.9.9,0,0,1,.06-1,.79.79,0,0,1,.95-.31,1.53,1.53,0,0,1,.7.61c.5.86.95,1.76,1.44,2.68,4.76-2.18,9.3-2.21,13.49,1.35l3.09-2.15.72-.5a.89.89,0,0,1,1.31.17.92.92,0,0,1-.22,1.35c-1,.7-2,1.38-3,2.07l-.54.39a1.74,1.74,0,0,0,.13.2,10.23,10.23,0,0,1,2.61,7.41,19.94,19.94,0,0,1-1.23,6.35.56.56,0,0,0,.25.76c1.34,1,2.67,2,4,3a1.35,1.35,0,0,1,.5.86,1.13,1.13,0,0,1-.47.81.81.81,0,0,1-1-.09l-3.5-2.6L478,121a83.08,83.08,0,0,1-10.35,16.8l2.18,2.53c.77.9,1.57,1.79,2.32,2.72a1,1,0,0,1-.38,1.6.88.88,0,0,1-1-.37l-2.4-2.77Zm-39.24-35.89a2.87,2.87,0,0,0-.32.14,28.64,28.64,0,0,0-2.54,1.92,8.14,8.14,0,0,0-2.7,5.2,15.82,15.82,0,0,0,.51,5.69c.05.24.18.26.4.24.88-.1,1.75-.19,2.63-.24a.91.91,0,0,1,1,.9,1,1,0,0,1-.93,1l-1.15.11-1.32.15a57.75,57.75,0,0,0,6.23,11.79l2.1-.94a.92.92,0,0,1,1.31.45A.9.9,0,0,1,432,131l-1.78.82a121.76,121.76,0,0,0,7.68,10l.29-.38c.4-.55.8-1.11,1.21-1.65a.87.87,0,0,1,1-.35.83.83,0,0,1,.66.76,1.62,1.62,0,0,1-.25.85c-.44.67-.93,1.32-1.41,2-.15.2-.19.34,0,.55l9.34,10.13a1.54,1.54,0,0,0,.28.21c0-1.37,0-2.67,0-4,0-.69.39-1.14,1-1.13s.92.45.93,1.11v3.49c0,.14,0,.29,0,.53a195.81,195.81,0,0,0,14.36-16.18c-.45-.51-.88-1-1.29-1.49a1.51,1.51,0,0,1-.33-.59.88.88,0,0,1,.48-1,.93.93,0,0,1,1.14.23c.4.42.77.88,1.17,1.33a3.56,3.56,0,0,0,.23-.29c1.76-2.52,3.56-5,5.25-7.59a53.9,53.9,0,0,0,4.39-8.21.47.47,0,0,0-.2-.71q-1-.68-1.89-1.41a1.38,1.38,0,0,1-.45-.67.81.81,0,0,1,.39-.92.92.92,0,0,1,1.09,0l1.93,1.43c.19-.69.38-1.3.52-1.91a14,14,0,0,0,.31-6.2,7.7,7.7,0,0,0-2.25-4l-1.92,1.34a1,1,0,1,1-1.08-1.55l1.54-1.08c-3.15-2.62-7.22-2.65-10.91-.81.09.19.19.39.29.58.31.58.63,1.16.92,1.76a.89.89,0,0,1-.39,1.23.91.91,0,0,1-1.25-.35c-.13-.21-.24-.43-.35-.65l-.91-1.7A29.43,29.43,0,0,0,455,110c-1.46,1.56-2.8,3.22-4.16,4.86-.6.72-1.25.78-1.75.1a47.68,47.68,0,0,0-5.26-6c-.69-.66-1.42-1.28-2.18-2-.22.68-.38,1.31-.61,1.91a1.47,1.47,0,0,1-.46.66.8.8,0,0,1-1,0,.94.94,0,0,1-.31-1.12c.26-.87.53-1.74.84-2.73-1.32-.72-2.59-1.52-3.94-2.14a10.65,10.65,0,0,0-6.69-1c-.3.06-.36.17-.32.46.19,1.54.37,3.07.54,4.61a.93.93,0,0,1-.84,1.12c-.59.06-1-.31-1-1C427.61,106.33,427.44,104.9,427.26,103.41Z"/></g></g></g></g></svg>